<svg width="142" height="21" viewBox="0 0 142 21" fill="none" xmlns="http://www.w3.org/2000/svg">
<path d="M0 10.4429C0 16.0868 4.12968 20.0295 9.393 20.0295C13.4687 20.0295 16.7077 18.0041 18.1112 14.3855H15.1692C14.1435 16.6269 12.1461 17.8961 9.393 17.8961C5.45226 17.8961 2.5102 15.0336 2.5102 10.4429C2.5102 5.82509 5.45226 2.96261 9.393 2.96261C12.1461 2.96261 14.1435 4.23182 15.1692 6.5002H18.1112C16.7077 2.85459 13.4687 0.802246 9.393 0.802246C4.12968 0.802246 0 4.79892 0 10.4429Z" fill="#4C65EA"/>
<path d="M40.0137 10.4429C40.0137 4.79892 35.884 0.82925 30.5667 0.82925C25.2764 0.82925 21.1197 4.79892 21.1197 10.4429C21.1197 16.0868 25.2764 20.0565 30.5667 20.0565C35.884 20.0565 40.0137 16.0868 40.0137 10.4429ZM23.6299 10.4429C23.6299 5.82509 26.599 2.96261 30.5667 2.96261C34.5344 2.96261 37.5035 5.82509 37.5035 10.4429C37.5035 15.0336 34.5344 17.9231 30.5667 17.9231C26.599 17.9231 23.6299 15.0336 23.6299 10.4429Z" fill="#4C65EA"/>
<path d="M49.3833 1.04529H43.5261V19.8675H49.3833C55.5643 19.8675 59.3701 16.3299 59.3701 10.4969C59.3701 4.6639 55.5643 1.04529 49.3833 1.04529ZM45.9824 17.8421V3.04362H49.3833C54.2957 3.04362 56.8599 5.9061 56.8599 10.4969C56.8599 15.0876 54.2957 17.8421 49.3833 17.8421H45.9824Z" fill="#4C65EA"/>
<path d="M73.0016 1.01828H62.8798V19.8675H73.0016V17.8421H65.336V11.361H72.1918V9.33568H65.336V3.04362H73.0016V1.01828Z" fill="#4C65EA"/>
<path d="M94.7377 14.3045C94.7377 15.8978 93.658 16.7889 91.8226 16.7889H88.0168V11.7121H91.7416C93.577 11.7121 94.7377 12.6842 94.7377 14.3045ZM94.2788 6.4462C94.2788 7.98545 93.2531 8.79559 91.4717 8.79559H88.0168V4.06979H91.4717C93.2531 4.06979 94.2788 4.93394 94.2788 6.4462ZM98.5704 14.7636C98.5704 12.5492 97.0589 10.5779 94.9266 10.1998C96.762 9.60573 98.1386 8.17448 98.1386 5.8791C98.1386 3.07063 95.9523 1.01828 92.0115 1.01828H84.238V19.8675H92.3624C96.2762 19.8675 98.5704 17.7611 98.5704 14.7636Z" fill="#4C65EA"/>
<path d="M137.654 19.8675H142L135.981 10.4969L141.892 1.01828H137.627L133.957 7.33735L129.881 1.01828H125.535L131.554 10.3619L125.616 19.8675H129.881L133.579 13.5214L137.654 19.8675Z" fill="#4C65EA"/>
<path d="M113.49 0L104.321 4.58463L113.49 8.15046L122.66 4.58463L113.49 0Z" fill="url(#paint0_linear_451_173)"/>
<path d="M112.472 9.16934L103.302 5.60352V15.7916L112.472 19.8668V9.16934Z" fill="url(#paint1_linear_451_173)"/>
<path d="M114.509 9.16934L123.679 5.60352V15.7916L114.509 19.8668V9.16934Z" fill="url(#paint2_linear_451_173)"/>
<defs>
<linearGradient id="paint0_linear_451_173" x1="104.831" y1="4.58463" x2="122.15" y2="4.58463" gradientUnits="userSpaceOnUse">
<stop stop-color="#83B5FF"/>
<stop offset="1" stop-color="#478BF4"/>
</linearGradient>
<linearGradient id="paint1_linear_451_173" x1="103.302" y1="6.11292" x2="111.962" y2="19.8668" gradientUnits="userSpaceOnUse">
<stop stop-color="#7CDE96"/>
<stop offset="1" stop-color="#34A853"/>
</linearGradient>
<linearGradient id="paint2_linear_451_173" x1="119.094" y1="5.60352" x2="119.094" y2="19.8668" gradientUnits="userSpaceOnUse">
<stop stop-color="#F9BE02"/>
<stop offset="1" stop-color="#F9BE02"/>
</linearGradient>
</defs>
</svg>
