<svg width="100" height="100" viewBox="0 0 100 100" fill="none" xmlns="http://www.w3.org/2000/svg">
<circle cx="50" cy="50" r="50" fill="#E8EFFF"/>
<mask id="mask0_318_227" style="mask-type:alpha" maskUnits="userSpaceOnUse" x="0" y="0" width="100" height="100">
<circle cx="50" cy="50" r="50" fill="#E8EFFF"/>
</mask>
<g mask="url(#mask0_318_227)">
<path d="M75.8692 61.6856L84.551 46.6448C85.0414 45.8015 84.7459 44.7303 83.9128 44.2399C83.0818 43.7495 81.9984 44.0347 81.5202 44.8781L72.7236 60.1117C66.0117 57.0461 58.4585 55.3368 50.3328 55.3368C42.2091 55.3368 34.6539 57.0461 27.942 60.1117L19.1453 44.8781C18.6549 44.0347 17.5837 43.7495 16.7404 44.2399C15.8971 44.7303 15.6118 45.8015 16.1022 46.6448L24.784 61.6856C9.81714 69.7989 -0.325614 84.9525 -2 102.694H102.67C100.993 84.9525 90.8525 69.7989 75.8692 61.6856ZM26.3045 87.9956C23.8771 87.9956 21.9174 86.0237 21.9174 83.6085C21.9174 81.1811 23.8894 79.2215 26.3045 79.2215C28.732 79.2215 30.6916 81.1934 30.6916 83.6085C30.7018 86.0237 28.7299 87.9956 26.3045 87.9956ZM74.3549 87.9956C71.9274 87.9956 69.9678 86.0237 69.9678 83.6085C69.9678 81.1811 71.9397 79.2215 74.3549 79.2215C76.7823 79.2215 78.7419 81.1934 78.7419 83.6085C78.7522 86.0237 76.7803 87.9956 74.3549 87.9956Z" fill="#4C65EA"/>
<circle cx="51" cy="111" r="49.75" stroke="#B7C2FF" stroke-width="0.5"/>
<circle cx="74.5" cy="83.5" r="5.30357" stroke="#B7C2FF" stroke-width="0.392857"/>
<circle cx="26.5" cy="83.5" r="5.30357" stroke="#B7C2FF" stroke-width="0.392857"/>
</g>
</svg>
