<svg width="100" height="100" viewBox="0 0 100 100" fill="none" xmlns="http://www.w3.org/2000/svg">
<circle cx="50" cy="50" r="50" fill="#E8EFFF"/>
<mask id="mask0_320_265" style="mask-type:alpha" maskUnits="userSpaceOnUse" x="0" y="0" width="100" height="100">
<circle cx="50" cy="50" r="50" fill="#E8EFFF"/>
</mask>
<g mask="url(#mask0_320_265)">
<rect x="13" y="50" width="73" height="51" rx="4" fill="#3146CC"/>
<rect x="19" y="55" width="61" height="41" rx="4" fill="#4C65EA"/>
<path d="M43.727 80.35C44.1678 80.544 44.3882 80.8702 44.3882 81.3287C44.3882 81.6813 44.2648 81.9722 44.018 82.2015C43.7887 82.4131 43.4978 82.5189 43.1451 82.5189C42.8983 82.5189 42.6779 82.4748 42.4839 82.3866L32.6713 78.2077C32.3011 78.049 32.0101 77.8198 31.7985 77.52C31.5869 77.2026 31.4811 76.8411 31.4811 76.4356C31.4811 76.0477 31.5869 75.695 31.7985 75.3776C32.0101 75.0602 32.3011 74.831 32.6713 74.69L42.4839 70.4846C42.7131 70.3964 42.9336 70.3523 43.1451 70.3523C43.4978 70.3523 43.7887 70.4669 44.018 70.6962C44.2648 70.9078 44.3882 71.1899 44.3882 71.5425C44.3882 72.001 44.1678 72.3272 43.727 72.5211L34.3905 76.4356L43.727 80.35ZM48.1866 84.8993C48.0808 85.2343 47.9133 85.4811 47.684 85.6398C47.4548 85.7985 47.1991 85.8779 46.917 85.8779C46.5644 85.8779 46.247 85.7544 45.9649 85.5076C45.7004 85.2784 45.5681 84.9786 45.5681 84.6083C45.5681 84.4496 45.5946 84.2909 45.6475 84.1322L51.7836 64.9038C51.8894 64.5688 52.0569 64.322 52.2862 64.1633C52.5154 64.0046 52.7711 63.9252 53.0532 63.9252C53.4058 63.9252 53.7144 64.0487 53.9789 64.2955C54.261 64.5247 54.4021 64.8245 54.4021 65.1948C54.4021 65.3535 54.3756 65.5122 54.3227 65.6709L48.1866 84.8993ZM67.3482 74.69C67.7185 74.831 68.0095 75.0602 68.221 75.3776C68.4326 75.695 68.5384 76.0477 68.5384 76.4356C68.5384 76.8411 68.4326 77.2026 68.221 77.52C68.0095 77.8198 67.7185 78.049 67.3482 78.2077L57.5357 82.3866C57.3417 82.4748 57.1213 82.5189 56.8744 82.5189C56.5218 82.5189 56.222 82.4131 55.9752 82.2015C55.7459 81.9722 55.6313 81.6813 55.6313 81.3287C55.6313 80.8702 55.8517 80.544 56.2926 80.35L65.6291 76.4356L56.2926 72.5211C55.8517 72.3272 55.6313 72.001 55.6313 71.5425C55.6313 71.1899 55.7459 70.9078 55.9752 70.6962C56.222 70.4669 56.5218 70.3523 56.8744 70.3523C57.086 70.3523 57.3064 70.3964 57.5357 70.4846L67.3482 74.69Z" fill="white"/>
<rect x="26" y="91" width="10" height="5" fill="#3146CC"/>
<circle cx="77.5" cy="52.5" r="14.5" fill="#F4A42B"/>
<circle cx="74.5" cy="49.5" r="14.25" stroke="#B7C2FF" stroke-width="0.5"/>
<path d="M84.1668 49.25L76.3752 57.0417L72.8335 53.5" stroke="white" stroke-width="1.41667" stroke-linecap="round" stroke-linejoin="round"/>
</g>
</svg>
