<svg width="100" height="100" viewBox="0 0 100 100" fill="none" xmlns="http://www.w3.org/2000/svg">
<circle cx="50" cy="50" r="50" fill="#E8EFFF"/>
<mask id="mask0_320_220" style="mask-type:alpha" maskUnits="userSpaceOnUse" x="0" y="0" width="100" height="100">
<circle cx="50" cy="50" r="50" fill="#E8EFFF"/>
</mask>
<g mask="url(#mask0_320_220)">
<rect x="2" y="42" width="73" height="51" rx="4" fill="#8397CC"/>
<rect x="8" y="47" width="61" height="41" rx="4" fill="#A9BCE9"/>
<rect x="34" y="93" width="10" height="15" fill="#8397CC"/>
</g>
<g clip-path="url(#clip0_320_220)">
<rect x="57" y="32" width="28" height="17" fill="white"/>
<path fill-rule="evenodd" clip-rule="evenodd" d="M68.7622 58.2913L60.2757 66.4301C60.0941 66.6325 59.8555 66.7752 59.5912 66.8393C59.3269 66.9035 59.0494 66.8861 58.7952 66.7894C58.541 66.6927 58.3221 66.5214 58.1672 66.2978C58.0123 66.0743 57.9287 65.8091 57.9275 65.5372V58.2913H53.4423C52.531 58.286 51.6585 57.9216 51.0142 57.2772C50.3698 56.6328 50.0054 55.7603 50 54.849V28.4423C50.0071 27.5315 50.3721 26.6601 51.0161 26.0161C51.6601 25.3721 52.5315 25.0071 53.4423 25H88.0799C88.9911 25.0054 89.8636 25.3698 90.508 26.0142C91.1524 26.6585 91.5168 27.531 91.5221 28.4423V54.849C91.5168 55.7603 91.1524 56.6328 90.508 57.2772C89.8636 57.9216 88.9911 58.286 88.0799 58.2913H68.7622ZM59.3828 37.4774C59.0388 37.4601 58.7146 37.3112 58.4773 37.0616C58.2399 36.812 58.1076 36.4807 58.1076 36.1363C58.1076 35.7919 58.2399 35.4606 58.4773 35.211C58.7146 34.9614 59.0388 34.8125 59.3828 34.7952H82.1394C82.3212 34.786 82.5029 34.8139 82.6736 34.8772C82.8443 34.9404 83.0004 35.0377 83.1323 35.1632C83.2642 35.2886 83.3693 35.4395 83.441 35.6068C83.5128 35.7741 83.5498 35.9543 83.5498 36.1363C83.5498 36.3183 83.5128 36.4985 83.441 36.6658C83.3693 36.8331 83.2642 36.984 83.1323 37.1094C83.0004 37.2349 82.8443 37.3322 82.6736 37.3954C82.5029 37.4587 82.3212 37.4866 82.1394 37.4774H59.3828ZM59.3828 46.1854C59.0388 46.168 58.7146 46.0192 58.4773 45.7696C58.2399 45.52 58.1076 45.1887 58.1076 44.8443C58.1076 44.4998 58.2399 44.1686 58.4773 43.919C58.7146 43.6693 59.0388 43.5205 59.3828 43.5031H77.9473C78.2913 43.5205 78.6154 43.6693 78.8528 43.919C79.0901 44.1686 79.2225 44.4998 79.2225 44.8443C79.2225 45.1887 79.0901 45.52 78.8528 45.7696C78.6154 46.0192 78.2913 46.168 77.9473 46.1854H59.3828Z" fill="#4C65EA"/>
</g>
<path d="M71.7622 59.0413H71.6617L71.5891 59.1109L63.1027 67.2497L63.0959 67.2562L63.0897 67.2632C62.9418 67.428 62.7474 67.5442 62.5322 67.5964C62.317 67.6486 62.0911 67.6344 61.8841 67.5557C61.6771 67.477 61.4988 67.3375 61.3727 67.1554C61.2466 66.9736 61.1786 66.7579 61.1775 66.5366V59.2913V59.0413H60.9275L56.4438 59.0413C56.4435 59.0413 56.4433 59.0413 56.4431 59.0413C55.5978 59.0362 54.7886 58.6981 54.1909 58.1004C53.5932 57.5027 53.2552 56.6935 53.25 55.8483V29.4433C53.2569 28.5985 53.5955 27.7903 54.1929 27.1929C54.7903 26.5955 55.5985 26.2569 56.4433 26.25H91.0791C91.9243 26.2552 92.7335 26.5932 93.3312 27.1909C93.9289 27.7886 94.267 28.5978 94.2721 29.4431C94.2721 29.4433 94.2721 29.4435 94.2721 29.4438V55.8476C94.2721 55.8478 94.2721 55.848 94.2721 55.8482C94.267 56.6935 93.9289 57.5027 93.3312 58.1004C92.7335 58.6981 91.9243 59.0362 91.079 59.0413C91.0788 59.0413 91.0786 59.0413 91.0784 59.0413L71.7622 59.0413ZM62.3702 38.7271L62.3702 38.7274H62.3828H85.1333C85.3468 38.7373 85.5601 38.7041 85.7605 38.6299C85.963 38.5548 86.1481 38.4394 86.3046 38.2906C86.461 38.1418 86.5856 37.9628 86.6708 37.7643C86.7559 37.5659 86.7998 37.3522 86.7998 37.1363C86.7998 36.9204 86.7559 36.7067 86.6708 36.5083C86.5856 36.3098 86.461 36.1308 86.3046 35.982C86.1481 35.8332 85.963 35.7178 85.7605 35.6427C85.5601 35.5685 85.3468 35.5353 85.1333 35.5452H62.3828V35.5449L62.3702 35.5455C61.9622 35.5661 61.5776 35.7427 61.2961 36.0387C61.0146 36.3348 60.8576 36.7277 60.8576 37.1363C60.8576 37.5449 61.0146 37.9378 61.2961 38.2339C61.5776 38.53 61.9622 38.7065 62.3702 38.7271ZM62.3702 47.4351L62.3702 47.4354H62.3828H80.9473V47.4357L80.9599 47.4351C81.3679 47.4145 81.7524 47.2379 82.034 46.9418C82.3155 46.6458 82.4725 46.2528 82.4725 45.8443C82.4725 45.4357 82.3155 45.0428 82.034 44.7467C81.7524 44.4506 81.3679 44.274 80.9599 44.2535L80.9599 44.2531H80.9473H62.3828V44.2528L62.3702 44.2535C61.9622 44.274 61.5776 44.4506 61.2961 44.7467C61.0146 45.0428 60.8576 45.4357 60.8576 45.8443C60.8576 46.2528 61.0146 46.6458 61.2961 46.9418C61.5776 47.2379 61.9622 47.4145 62.3702 47.4351Z" stroke="#B7C2FF" stroke-width="0.5"/>
<defs>
<clipPath id="clip0_320_220">
<rect width="41.5221" height="41.88" fill="white" transform="translate(50 25)"/>
</clipPath>
</defs>
</svg>
