<svg width="143" height="143" viewBox="0 0 143 143" fill="none" xmlns="http://www.w3.org/2000/svg">
<circle cx="71.5" cy="71.5" r="71.5" fill="#E8EFFF"/>
<mask id="mask0_411_373" style="mask-type:alpha" maskUnits="userSpaceOnUse" x="0" y="0" width="143" height="143">
<circle cx="71.5" cy="71.5" r="71.5" fill="#E8EFFF"/>
</mask>
<g mask="url(#mask0_411_373)">
<path d="M108.493 88.2103L120.908 66.702C121.609 65.496 121.187 63.9643 119.995 63.263C118.807 62.5617 117.258 62.9696 116.574 64.1756L103.995 85.9597C94.3966 81.5759 83.5955 79.1316 71.9757 79.1316C60.3589 79.1316 49.5549 81.5759 39.9569 85.9597L27.3776 64.1756C26.6763 62.9696 25.1447 62.5617 23.9387 63.263C22.7327 63.9643 22.3248 65.496 23.0261 66.702L35.441 88.2103C14.0384 99.8124 -0.465736 121.482 -2.86011 146.852H146.817C144.42 121.482 129.919 99.8124 108.493 88.2103ZM37.6153 125.834C34.1441 125.834 31.3418 123.014 31.3418 119.56C31.3418 116.089 34.1617 113.287 37.6153 113.287C41.0866 113.287 43.8888 116.106 43.8888 119.56C43.9035 123.014 41.0837 125.834 37.6153 125.834ZM106.327 125.834C102.856 125.834 100.054 123.014 100.054 119.56C100.054 116.089 102.874 113.287 106.327 113.287C109.799 113.287 112.601 116.106 112.601 119.56C112.616 123.014 109.796 125.834 106.327 125.834Z" fill="#4C65EA"/>
<circle cx="72.9299" cy="158.73" r="71.25" stroke="#B7C2FF" stroke-width="0.5"/>
<circle cx="106.535" cy="119.405" r="7.66857" stroke="#B7C2FF" stroke-width="0.392857"/>
<circle cx="37.8953" cy="119.405" r="7.66857" stroke="#B7C2FF" stroke-width="0.392857"/>
<circle cx="80.5" cy="88.5" r="25.5" fill="#48C5A1"/>
<path d="M79.8814 101.286C80.2366 101.476 80.6825 101.475 81.0377 101.285C90.7189 96.0842 91.4064 85.9233 91.398 83.0342C91.3971 82.802 91.3284 82.5751 91.2005 82.3813C91.0726 82.1875 90.891 82.0352 90.6778 81.9431L80.9507 77.6342C80.7959 77.5659 80.6286 77.5308 80.4594 77.531C80.2902 77.5312 80.123 77.5668 79.9684 77.6354L70.3089 81.9443C70.0989 82.0365 69.9198 82.1871 69.793 82.3782C69.6662 82.5693 69.597 82.7928 69.5936 83.0221C69.5525 85.8968 70.1313 96.0794 79.8814 101.286ZM76.4811 87.4374L79.2518 90.2081L84.4392 85.0207L86.1478 86.7293L79.2518 93.6253L74.7725 89.146L76.4811 87.4374Z" fill="white"/>
<circle cx="76.5" cy="88.5" r="26.25" stroke="#B7C2FF" stroke-width="0.5"/>
</g>
</svg>
