<svg width="143" height="143" viewBox="0 0 143 143" fill="none" xmlns="http://www.w3.org/2000/svg">
<circle cx="71.5" cy="71.5" r="71.5" fill="#E8EFFF"/>
<mask id="mask0_411_390" style="mask-type:alpha" maskUnits="userSpaceOnUse" x="0" y="0" width="143" height="143">
<circle cx="71.5" cy="71.5" r="71.5" fill="#E8EFFF"/>
</mask>
<g mask="url(#mask0_411_390)">
<path d="M108.493 88.2103L120.908 66.702C121.609 65.496 121.187 63.9643 119.995 63.263C118.807 62.5617 117.258 62.9696 116.574 64.1756L103.995 85.9597C94.3966 81.5759 83.5955 79.1316 71.9757 79.1316C60.3589 79.1316 49.5549 81.5759 39.9569 85.9597L27.3776 64.1756C26.6763 62.9696 25.1447 62.5617 23.9387 63.263C22.7327 63.9643 22.3248 65.496 23.0261 66.702L35.441 88.2103C14.0384 99.8124 -0.465736 121.482 -2.86011 146.852H146.817C144.42 121.482 129.919 99.8124 108.493 88.2103ZM37.6153 125.834C34.1441 125.834 31.3418 123.014 31.3418 119.56C31.3418 116.089 34.1617 113.287 37.6153 113.287C41.0866 113.287 43.8888 116.106 43.8888 119.56C43.9035 123.014 41.0837 125.834 37.6153 125.834ZM106.327 125.834C102.856 125.834 100.054 123.014 100.054 119.56C100.054 116.089 102.874 113.287 106.327 113.287C109.799 113.287 112.601 116.106 112.601 119.56C112.616 123.014 109.796 125.834 106.327 125.834Z" fill="#4C65EA"/>
<circle cx="72.9299" cy="158.73" r="71.25" stroke="#B7C2FF" stroke-width="0.5"/>
<circle cx="106.535" cy="119.405" r="7.66857" stroke="#B7C2FF" stroke-width="0.392857"/>
<circle cx="37.8953" cy="119.405" r="7.66857" stroke="#B7C2FF" stroke-width="0.392857"/>
<circle cx="80.5002" cy="88.5" r="25.5" fill="#48C5A1"/>
<path d="M79.5873 82.9989H75.7023C75.2917 82.9988 74.8911 83.125 74.5548 83.3605C74.2184 83.5959 73.9627 83.9291 73.8223 84.3149L70.0623 94.6569C69.9293 95.0219 70.0203 95.4309 70.2943 95.7059L70.5873 95.9989L77.0093 89.5769C77.0083 89.5509 77.0013 89.5249 77.0013 89.4989C77.0013 89.2023 77.0893 88.9123 77.2541 88.6656C77.4189 88.4189 77.6532 88.2267 77.9273 88.1131C78.2014 87.9996 78.503 87.9699 78.7939 88.0278C79.0849 88.0856 79.3522 88.2285 79.562 88.4383C79.7717 88.6481 79.9146 88.9153 79.9725 89.2063C80.0304 89.4973 80.0006 89.7989 79.8871 90.073C79.7736 90.3471 79.5813 90.5813 79.3347 90.7461C79.088 90.911 78.798 90.9989 78.5013 90.9989C78.4753 90.9989 78.4493 90.9919 78.4233 90.9909L72.0013 97.4129L72.2943 97.7059C72.4288 97.8407 72.599 97.9342 72.7849 97.9753C72.9708 98.0164 73.1645 98.0035 73.3433 97.9379L83.6853 94.1769C84.0711 94.0365 84.4043 93.7808 84.6398 93.4445C84.8752 93.1081 85.0014 92.7075 85.0013 92.2969V88.4119L87.0003 86.4139L81.5863 80.9999L79.5873 82.9989ZM87.9403 85.0609L82.9403 80.0609L85.0603 77.9399L90.0603 82.9399L87.9403 85.0609Z" fill="white"/>
<circle cx="76.5002" cy="88.5" r="26.25" stroke="#B7C2FF" stroke-width="0.5"/>
</g>
</svg>
