<svg width="143" height="143" viewBox="0 0 143 143" fill="none" xmlns="http://www.w3.org/2000/svg">
<circle cx="71.5" cy="71.5" r="71.5" fill="#E8EFFF"/>
<mask id="mask0_411_407" style="mask-type:alpha" maskUnits="userSpaceOnUse" x="0" y="0" width="143" height="143">
<circle cx="71.5" cy="71.5" r="71.5" fill="#E8EFFF"/>
</mask>
<g mask="url(#mask0_411_407)">
<path d="M108.493 88.2103L120.908 66.702C121.609 65.496 121.187 63.9643 119.995 63.263C118.807 62.5617 117.258 62.9696 116.574 64.1756L103.995 85.9597C94.3968 81.5759 83.5957 79.1316 71.976 79.1316C60.3592 79.1316 49.5552 81.5759 39.9571 85.9597L27.3779 64.1756C26.6766 62.9696 25.1449 62.5617 23.9389 63.263C22.7329 63.9643 22.3251 65.496 23.0263 66.702L35.4413 88.2103C14.0386 99.8124 -0.465492 121.482 -2.85986 146.852H146.818C144.42 121.482 129.919 99.8124 108.493 88.2103ZM37.6156 125.834C34.1443 125.834 31.3421 123.014 31.3421 119.56C31.3421 116.089 34.1619 113.287 37.6156 113.287C41.0868 113.287 43.8891 116.106 43.8891 119.56C43.9037 123.014 41.0839 125.834 37.6156 125.834ZM106.328 125.834C102.856 125.834 100.054 123.014 100.054 119.56C100.054 116.089 102.874 113.287 106.328 113.287C109.799 113.287 112.601 116.106 112.601 119.56C112.616 123.014 109.796 125.834 106.328 125.834Z" fill="#4C65EA"/>
<circle cx="72.9302" cy="158.73" r="71.25" stroke="#B7C2FF" stroke-width="0.5"/>
<circle cx="106.535" cy="119.405" r="7.66857" stroke="#B7C2FF" stroke-width="0.392857"/>
<circle cx="37.8953" cy="119.405" r="7.66857" stroke="#B7C2FF" stroke-width="0.392857"/>
<circle cx="80.5005" cy="88.5" r="25.5" fill="#48C5A1"/>
<path d="M80.1473 76.1877H85.7309V78.9795H80.1473V76.1877ZM66.1884 83.1672H71.772V85.959H66.1884V83.1672ZM66.1884 94.3344H71.772V97.1262H66.1884V94.3344ZM64.7925 88.7508H70.3621V91.5426H64.7925V88.7508ZM92.3014 81.3623L90.3276 79.3885L87.9448 81.7713C86.4346 80.8586 84.7037 80.3759 82.9391 80.3754C77.5524 80.3754 73.1678 84.7599 73.1678 90.1467C73.1678 95.5334 77.5524 99.9179 82.9391 99.9179C88.3259 99.9179 92.7104 95.5334 92.7104 90.1467C92.709 87.6984 91.7843 85.3406 90.121 83.5441L92.3014 81.3623ZM84.335 91.5426H81.5432V84.5045H84.335V91.5426Z" fill="white"/>
<circle cx="76.5005" cy="88.5" r="26.25" stroke="#B7C2FF" stroke-width="0.5"/>
</g>
</svg>
