<svg width="143" height="143" viewBox="0 0 143 143" fill="none" xmlns="http://www.w3.org/2000/svg">
<circle cx="71.5" cy="71.5" r="71.5" fill="#E8EFFF"/>
<mask id="mask0_411_551" style="mask-type:alpha" maskUnits="userSpaceOnUse" x="0" y="0" width="143" height="143">
<circle cx="71.5" cy="71.5" r="71.5" fill="#E8EFFF"/>
</mask>
<g mask="url(#mask0_411_551)">
<path d="M121.504 190.283H21.495C19.1046 190.283 17.1597 188.341 17.1597 185.948V105.82H125.84V185.948C125.84 188.338 123.897 190.283 121.504 190.283Z" fill="#A9BCE9"/>
<path d="M121.504 81.51H21.495C19.1046 81.51 17.1597 83.4561 17.1597 85.8476V101.001H125.84V85.8476C125.84 83.4561 123.897 81.51 121.504 81.51ZM27.4233 93.7174H25.798C24.4912 93.7174 23.4353 92.6608 23.4353 91.3548C23.4353 90.0499 24.4912 88.9922 25.798 88.9922H27.4233C28.7289 88.9922 29.7859 90.0499 29.7859 91.3548C29.7859 92.6589 28.7293 93.7174 27.4233 93.7174ZM36.9465 93.7174H35.3212C34.0152 93.7174 32.9585 92.6608 32.9585 91.3548C32.9585 90.0499 34.0152 88.9922 35.3212 88.9922H36.9465C38.2536 88.9922 39.3091 90.0499 39.3091 91.3548C39.3091 92.6589 38.2536 93.7174 36.9465 93.7174ZM113.14 93.7174H46.397C45.091 93.7174 44.0344 92.6608 44.0344 91.3548C44.0344 90.0499 45.091 88.9922 46.397 88.9922H113.141C114.446 88.9922 115.503 90.0499 115.503 91.3548C115.503 92.6589 114.446 93.7174 113.14 93.7174Z" fill="#8397CC"/>
<rect x="24.3101" y="114.4" width="65.78" height="2.86" fill="white"/>
<rect x="24.3105" y="120.12" width="40.04" height="2.86" fill="#8397CC"/>
<rect x="24.3105" y="125.84" width="47.19" height="2.86" fill="#8397CC"/>
<rect x="68.6406" y="120.12" width="5.72" height="2.86" fill="white"/>
<rect x="75.7905" y="125.84" width="27.17" height="2.86" fill="white"/>
<rect x="24.3105" y="131.56" width="65.78" height="2.86" fill="white"/>
<rect x="24.311" y="137.28" width="40.04" height="2.86" fill="#8397CC"/>
<rect x="68.6411" y="137.28" width="5.72" height="2.86" fill="white"/>
<circle cx="124" cy="81" r="25" fill="#4C65EA"/>
<path d="M121.342 84.516C121.642 84.648 121.792 84.87 121.792 85.182C121.792 85.422 121.708 85.62 121.54 85.776C121.384 85.92 121.186 85.992 120.946 85.992C120.778 85.992 120.628 85.962 120.496 85.902L113.818 83.058C113.566 82.95 113.368 82.794 113.224 82.59C113.08 82.374 113.008 82.128 113.008 81.852C113.008 81.588 113.08 81.348 113.224 81.132C113.368 80.916 113.566 80.76 113.818 80.664L120.496 77.802C120.652 77.742 120.802 77.712 120.946 77.712C121.186 77.712 121.384 77.79 121.54 77.946C121.708 78.09 121.792 78.282 121.792 78.522C121.792 78.834 121.642 79.056 121.342 79.188L114.988 81.852L121.342 84.516ZM124.376 87.612C124.304 87.84 124.19 88.008 124.034 88.116C123.878 88.224 123.704 88.278 123.512 88.278C123.272 88.278 123.056 88.194 122.864 88.026C122.684 87.87 122.594 87.666 122.594 87.414C122.594 87.306 122.612 87.198 122.648 87.09L126.824 74.004C126.896 73.776 127.01 73.608 127.166 73.5C127.322 73.392 127.496 73.338 127.688 73.338C127.928 73.338 128.138 73.422 128.318 73.59C128.51 73.746 128.606 73.95 128.606 74.202C128.606 74.31 128.588 74.418 128.552 74.526L124.376 87.612ZM137.417 80.664C137.669 80.76 137.867 80.916 138.011 81.132C138.155 81.348 138.227 81.588 138.227 81.852C138.227 82.128 138.155 82.374 138.011 82.59C137.867 82.794 137.669 82.95 137.417 83.058L130.739 85.902C130.607 85.962 130.457 85.992 130.289 85.992C130.049 85.992 129.845 85.92 129.677 85.776C129.521 85.62 129.443 85.422 129.443 85.182C129.443 84.87 129.593 84.648 129.893 84.516L136.247 81.852L129.893 79.188C129.593 79.056 129.443 78.834 129.443 78.522C129.443 78.282 129.521 78.09 129.677 77.946C129.845 77.79 130.049 77.712 130.289 77.712C130.433 77.712 130.583 77.742 130.739 77.802L137.417 80.664Z" fill="white"/>
<circle cx="115.83" cy="85.8001" r="25.65" stroke="#B7C2FF" stroke-width="0.18"/>
<circle cx="89.5" cy="81.5" r="25.5" fill="#48C5A1"/>
<path d="M88.5868 75.9989H84.7018C84.2913 75.9988 83.8906 76.125 83.5543 76.3605C83.218 76.5959 82.9622 76.9291 82.8218 77.3149L79.0618 87.6569C78.9288 88.0219 79.0198 88.4309 79.2938 88.7059L79.5868 88.9989L86.0088 82.5769C86.0078 82.5509 86.0008 82.5249 86.0008 82.4989C86.0008 82.2023 86.0888 81.9123 86.2536 81.6656C86.4184 81.4189 86.6527 81.2267 86.9268 81.1131C87.2009 80.9996 87.5025 80.9699 87.7934 81.0278C88.0844 81.0856 88.3517 81.2285 88.5615 81.4383C88.7712 81.6481 88.9141 81.9153 88.972 82.2063C89.0299 82.4973 89.0002 82.7989 88.8866 83.073C88.7731 83.3471 88.5808 83.5813 88.3342 83.7461C88.0875 83.911 87.7975 83.9989 87.5008 83.9989C87.4748 83.9989 87.4488 83.9919 87.4228 83.9909L81.0008 90.4129L81.2938 90.7059C81.4283 90.8407 81.5985 90.9342 81.7844 90.9753C81.9703 91.0164 82.1641 91.0035 82.3428 90.9379L92.6848 87.1769C93.0706 87.0365 93.4038 86.7808 93.6393 86.4445C93.8747 86.1081 94.0009 85.7075 94.0008 85.2969V81.4119L95.9998 79.4139L90.5858 73.9999L88.5868 75.9989ZM96.9398 78.0609L91.9398 73.0609L94.0598 70.9399L99.0598 75.9399L96.9398 78.0609Z" fill="white"/>
<circle cx="85.5" cy="81.5" r="26.25" stroke="#B7C2FF" stroke-width="0.5"/>
</g>
</svg>
