<svg width="143" height="143" viewBox="0 0 143 143" fill="none" xmlns="http://www.w3.org/2000/svg">
<circle cx="71.5" cy="71.5" r="71.5" fill="#E8EFFF"/>
<mask id="mask0_411_586" style="mask-type:alpha" maskUnits="userSpaceOnUse" x="0" y="0" width="143" height="143">
<circle cx="71.5" cy="71.5" r="71.5" fill="#E8EFFF"/>
</mask>
<g mask="url(#mask0_411_586)">
<path d="M121.504 190.283H21.495C19.1046 190.283 17.1597 188.341 17.1597 185.948V105.82H125.84V185.948C125.84 188.338 123.897 190.283 121.504 190.283Z" fill="#A9BCE9"/>
<path d="M121.504 81.51H21.495C19.1046 81.51 17.1597 83.4561 17.1597 85.8476V101.001H125.84V85.8476C125.84 83.4561 123.897 81.51 121.504 81.51ZM27.4233 93.7174H25.798C24.4912 93.7174 23.4353 92.6608 23.4353 91.3548C23.4353 90.0499 24.4912 88.9922 25.798 88.9922H27.4233C28.7289 88.9922 29.7859 90.0499 29.7859 91.3548C29.7859 92.6589 28.7293 93.7174 27.4233 93.7174ZM36.9465 93.7174H35.3212C34.0152 93.7174 32.9585 92.6608 32.9585 91.3548C32.9585 90.0499 34.0152 88.9922 35.3212 88.9922H36.9465C38.2536 88.9922 39.3091 90.0499 39.3091 91.3548C39.3091 92.6589 38.2536 93.7174 36.9465 93.7174ZM113.14 93.7174H46.397C45.091 93.7174 44.0344 92.6608 44.0344 91.3548C44.0344 90.0499 45.091 88.9922 46.397 88.9922H113.141C114.446 88.9922 115.503 90.0499 115.503 91.3548C115.503 92.6589 114.446 93.7174 113.14 93.7174Z" fill="#8397CC"/>
<circle cx="124" cy="81" r="25" fill="#4C65EA"/>
<path d="M121.342 84.516C121.642 84.648 121.792 84.87 121.792 85.182C121.792 85.422 121.708 85.62 121.54 85.776C121.384 85.92 121.186 85.992 120.946 85.992C120.778 85.992 120.628 85.962 120.496 85.902L113.818 83.058C113.566 82.95 113.368 82.794 113.224 82.59C113.08 82.374 113.008 82.128 113.008 81.852C113.008 81.588 113.08 81.348 113.224 81.132C113.368 80.916 113.566 80.76 113.818 80.664L120.496 77.802C120.652 77.742 120.802 77.712 120.946 77.712C121.186 77.712 121.384 77.79 121.54 77.946C121.708 78.09 121.792 78.282 121.792 78.522C121.792 78.834 121.642 79.056 121.342 79.188L114.988 81.852L121.342 84.516ZM124.376 87.612C124.304 87.84 124.19 88.008 124.034 88.116C123.878 88.224 123.704 88.278 123.512 88.278C123.272 88.278 123.056 88.194 122.864 88.026C122.684 87.87 122.594 87.666 122.594 87.414C122.594 87.306 122.612 87.198 122.648 87.09L126.824 74.004C126.896 73.776 127.01 73.608 127.166 73.5C127.322 73.392 127.496 73.338 127.688 73.338C127.928 73.338 128.138 73.422 128.318 73.59C128.51 73.746 128.606 73.95 128.606 74.202C128.606 74.31 128.588 74.418 128.552 74.526L124.376 87.612ZM137.417 80.664C137.669 80.76 137.867 80.916 138.011 81.132C138.155 81.348 138.227 81.588 138.227 81.852C138.227 82.128 138.155 82.374 138.011 82.59C137.867 82.794 137.669 82.95 137.417 83.058L130.739 85.902C130.607 85.962 130.457 85.992 130.289 85.992C130.049 85.992 129.845 85.92 129.677 85.776C129.521 85.62 129.443 85.422 129.443 85.182C129.443 84.87 129.593 84.648 129.893 84.516L136.247 81.852L129.893 79.188C129.593 79.056 129.443 78.834 129.443 78.522C129.443 78.282 129.521 78.09 129.677 77.946C129.845 77.79 130.049 77.712 130.289 77.712C130.433 77.712 130.583 77.742 130.739 77.802L137.417 80.664Z" fill="white"/>
<circle cx="115.83" cy="85.8001" r="25.65" stroke="#B7C2FF" stroke-width="0.18"/>
<rect x="24.3101" y="114.4" width="65.78" height="2.86" fill="white"/>
<rect x="24.3105" y="120.12" width="40.04" height="2.86" fill="#8397CC"/>
<rect x="24.3105" y="125.84" width="47.19" height="2.86" fill="#8397CC"/>
<rect x="68.6406" y="120.12" width="5.72" height="2.86" fill="white"/>
<rect x="75.7905" y="125.84" width="27.17" height="2.86" fill="white"/>
<rect x="24.3105" y="131.56" width="65.78" height="2.86" fill="white"/>
<rect x="24.311" y="137.28" width="40.04" height="2.86" fill="#8397CC"/>
<rect x="68.6411" y="137.28" width="5.72" height="2.86" fill="white"/>
<circle cx="89.5" cy="81.5" r="25.5" fill="#48C5A1"/>
<path d="M88.8814 94.2861C89.2366 94.4758 89.6825 94.4746 90.0377 94.2849C99.7189 89.0842 100.406 78.9233 100.398 76.0342C100.397 75.802 100.328 75.5751 100.201 75.3813C100.073 75.1875 99.891 75.0352 99.6778 74.9431L89.9507 70.6342C89.7959 70.5659 89.6286 70.5308 89.4594 70.531C89.2902 70.5312 89.123 70.5668 88.9684 70.6354L79.3089 74.9443C79.0989 75.0365 78.9198 75.1871 78.793 75.3782C78.6662 75.5693 78.597 75.7928 78.5936 76.0221C78.5525 78.8968 79.1313 89.0794 88.8814 94.2861ZM85.4811 80.4374L88.2518 83.2081L93.4392 78.0207L95.1478 79.7293L88.2518 86.6253L83.7725 82.146L85.4811 80.4374Z" fill="white"/>
<circle cx="85.5" cy="81.5" r="26.25" stroke="#B7C2FF" stroke-width="0.5"/>
</g>
</svg>
