<svg width="100" height="100" viewBox="0 0 100 100" fill="none" xmlns="http://www.w3.org/2000/svg">
<circle cx="50" cy="50" r="50" fill="#E8EFFF"/>
<mask id="mask0_320_112" style="mask-type:alpha" maskUnits="userSpaceOnUse" x="0" y="0" width="100" height="100">
<circle cx="50" cy="50" r="50" fill="#E8EFFF"/>
</mask>
<g mask="url(#mask0_320_112)">
<path d="M84.9683 133.065H15.0317C13.3601 133.065 12 131.707 12 130.033V74H88V130.033C88 131.705 86.6412 133.065 84.9683 133.065Z" fill="#A9BCE9"/>
<path d="M84.9683 57H15.0317C13.3601 57 12 58.3609 12 60.0333V70.6303H88V60.0333C88 58.3609 86.6412 57 84.9683 57ZM19.1773 65.5367H18.0408C17.1269 65.5367 16.3886 64.7978 16.3886 63.8845C16.3886 62.972 17.1269 62.2323 18.0408 62.2323H19.1773C20.0904 62.2323 20.8295 62.972 20.8295 63.8845C20.8295 64.7964 20.0906 65.5367 19.1773 65.5367ZM25.8369 65.5367H24.7003C23.7871 65.5367 23.0481 64.7978 23.0481 63.8845C23.0481 62.972 23.7871 62.2323 24.7003 62.2323H25.8369C26.751 62.2323 27.4891 62.972 27.4891 63.8845C27.4891 64.7964 26.751 65.5367 25.8369 65.5367ZM79.1194 65.5367H32.4457C31.5324 65.5367 30.7935 64.7978 30.7935 63.8845C30.7935 62.972 31.5324 62.2323 32.4457 62.2323H79.1197C80.0327 62.2323 80.7719 62.972 80.7719 63.8845C80.7719 64.7964 80.0327 65.5367 79.1194 65.5367Z" fill="#8397CC"/>
<circle cx="87" cy="57" r="18" fill="#4C65EA"/>
<path d="M83.747 59.206C83.9637 59.3013 84.072 59.4617 84.072 59.687C84.072 59.8603 84.0113 60.0033 83.89 60.116C83.7773 60.22 83.6343 60.272 83.461 60.272C83.3397 60.272 83.2313 60.2503 83.136 60.207L78.313 58.153C78.131 58.075 77.988 57.9623 77.884 57.815C77.78 57.659 77.728 57.4813 77.728 57.282C77.728 57.0913 77.78 56.918 77.884 56.762C77.988 56.606 78.131 56.4933 78.313 56.424L83.136 54.357C83.2487 54.3137 83.357 54.292 83.461 54.292C83.6343 54.292 83.7773 54.3483 83.89 54.461C84.0113 54.565 84.072 54.7037 84.072 54.877C84.072 55.1023 83.9637 55.2627 83.747 55.358L79.158 57.282L83.747 59.206ZM85.9389 61.442C85.8869 61.6067 85.8046 61.728 85.6919 61.806C85.5793 61.884 85.4536 61.923 85.3149 61.923C85.1416 61.923 84.9856 61.8623 84.8469 61.741C84.7169 61.6283 84.6519 61.481 84.6519 61.299C84.6519 61.221 84.6649 61.143 84.6909 61.065L87.7069 51.614C87.7589 51.4493 87.8413 51.328 87.9539 51.25C88.0666 51.172 88.1923 51.133 88.3309 51.133C88.5043 51.133 88.6559 51.1937 88.7859 51.315C88.9246 51.4277 88.9939 51.575 88.9939 51.757C88.9939 51.835 88.9809 51.913 88.9549 51.991L85.9389 61.442ZM95.3571 56.424C95.5391 56.4933 95.6821 56.606 95.7861 56.762C95.8901 56.918 95.9421 57.0913 95.9421 57.282C95.9421 57.4813 95.8901 57.659 95.7861 57.815C95.6821 57.9623 95.5391 58.075 95.3571 58.153L90.5341 60.207C90.4388 60.2503 90.3305 60.272 90.2091 60.272C90.0358 60.272 89.8885 60.22 89.7671 60.116C89.6545 60.0033 89.5981 59.8603 89.5981 59.687C89.5981 59.4617 89.7065 59.3013 89.9231 59.206L94.5121 57.282L89.9231 55.358C89.7065 55.2627 89.5981 55.1023 89.5981 54.877C89.5981 54.7037 89.6545 54.565 89.7671 54.461C89.8885 54.3483 90.0358 54.292 90.2091 54.292C90.3131 54.292 90.4215 54.3137 90.5341 54.357L95.3571 56.424Z" fill="white"/>
<circle cx="81" cy="60" r="17.91" stroke="#B7C2FF" stroke-width="0.18"/>
<rect x="17" y="80" width="46" height="2" fill="white"/>
<rect x="17" y="84" width="28" height="2" fill="#8397CC"/>
<rect x="17" y="88" width="33" height="2" fill="#8397CC"/>
<rect x="48" y="84" width="4" height="2" fill="white"/>
<rect x="53" y="88" width="19" height="2" fill="white"/>
<rect x="17" y="92" width="46" height="2" fill="white"/>
<rect x="17" y="96" width="28" height="2" fill="#8397CC"/>
<rect x="48" y="96" width="4" height="2" fill="white"/>
</g>
</svg>
